<svg xmlns="http://www.w3.org/2000/svg" viewBox="0 0 64 64" role="img" aria-label="NanoImage icon">
  <rect width="64" height="64" rx="16" fill="#F2E9FF"/>
  <g opacity=".14" transform="translate(1 4) rotate(-7 31 31)">
    <rect x="12" y="13" width="38" height="31" rx="6" fill="#111111"/>
  </g>
  <g transform="rotate(-7 31 31)">
    <rect x="12" y="12" width="38" height="31" rx="6" fill="#FFF7E6" stroke="#111111" stroke-width="3.6"/>
    <path d="M18 38 27 27l8 9 5-6 8 8" fill="#7C5CFF" stroke="#111111" stroke-width="2.8" stroke-linejoin="round"/>
    <circle cx="41" cy="22" r="4.5" fill="#FFCB3D" stroke="#111111" stroke-width="2.6"/>
  </g>
  <path d="M47 34c2.8 7.2 3.9 8.3 11.1 11.1C50.9 47.9 49.8 49 47 56.2c-2.8-7.2-3.9-8.3-11.1-11.1C43.1 42.3 44.2 41.2 47 34Z" fill="#FFCB3D" stroke="#111111" stroke-width="3.1" stroke-linejoin="round"/>
  <path d="M56 12.5 59.5 8M59.5 18.5l4-1.3M52 9.5l.9-4" stroke="#FFCB3D" stroke-width="3.2" stroke-linecap="round"/>
</svg>
